<?xml version="1.0" standalone="no"?>
<!DOCTYPE svg PUBLIC "-//W3C//DTD SVG 20010904//EN"
 "http://www.w3.org/TR/2001/REC-SVG-20010904/DTD/svg10.dtd">
<svg version="1.0" xmlns="http://www.w3.org/2000/svg"
 width="512.000000pt" height="490.000000pt" viewBox="0 0 512.000000 490.000000"
 preserveAspectRatio="xMidYMid meet">

<g transform="translate(0.000000,490.000000) scale(0.100000,-0.100000)"
fill="#000000" stroke="none">
<path d="M2305 4889 c-670 -31 -1325 -368 -1758 -904 -535 -663 -684 -1543
-400 -2360 128 -367 391 -756 682 -1009 694 -602 1607 -773 2466 -461 542 196
1050 639 1305 1140 25 48 58 100 73 116 15 15 96 62 180 103 228 111 289 175
258 269 -6 19 -35 72 -64 118 -29 46 -77 124 -107 173 l-55 90 -1 260 c-1 279
-11 379 -60 586 -187 794 -759 1445 -1519 1728 -322 120 -634 167 -1000 151z
m430 -414 c333 -46 659 -181 938 -388 193 -143 425 -404 545 -614 193 -337
276 -666 270 -1068 l-3 -190 92 -147 c50 -80 96 -162 101 -181 21 -76 -28
-126 -220 -222 -73 -37 -138 -72 -145 -77 -7 -5 -35 -52 -63 -105 -102 -188
-208 -329 -372 -490 -172 -170 -330 -282 -549 -387 -372 -179 -756 -238 -1178
-180 -489 67 -951 326 -1279 719 -301 360 -472 832 -472 1305 0 553 227 1086
626 1470 110 106 170 154 304 243 285 188 636 306 990 331 88 6 306 -4 415
-19z"/>
<path d="M1115 3316 c-113 -37 -221 -129 -268 -228 -46 -98 -49 -137 -45 -678
5 -564 4 -555 78 -705 74 -151 197 -273 345 -345 114 -54 198 -72 335 -72 218
1 372 64 526 217 156 155 214 285 222 497 5 147 -10 236 -59 338 -103 217
-325 399 -522 426 l-42 6 0 117 c0 98 -4 125 -24 174 -33 83 -133 187 -220
229 -60 30 -76 33 -176 35 -71 2 -124 -2 -150 -11z m208 -346 c21 -23 27 -40
27 -74 0 -78 -54 -120 -151 -114 l-54 3 -3 64 c-4 77 11 117 52 143 43 26 93
18 129 -22z m380 -539 c118 -47 212 -146 248 -264 17 -55 21 -86 17 -161 -3
-82 -8 -102 -37 -160 -43 -83 -120 -157 -208 -199 -61 -28 -78 -32 -158 -32
-144 0 -248 50 -337 163 -76 95 -82 124 -86 420 l-3 264 253 -4 c236 -3 257
-5 311 -27z"/>
<path d="M3012 3310 c-205 -54 -397 -217 -487 -414 -65 -141 -65 -143 -65
-889 l0 -674 25 -23 c22 -20 38 -24 113 -28 49 -2 106 1 130 8 70 18 72 30 72
371 0 160 3 289 8 287 4 -2 30 -15 57 -29 28 -15 69 -32 92 -39 34 -10 110
-74 369 -307 l325 -293 210 0 c138 0 208 3 204 10 -3 6 -144 134 -313 286
-169 152 -308 280 -310 284 -1 4 18 13 44 20 65 18 177 94 257 174 104 104
155 189 198 326 34 108 34 302 0 410 -82 264 -297 469 -548 524 -102 23 -287
20 -381 -4z m345 -328 c286 -109 364 -476 147 -695 -134 -135 -335 -164 -491
-70 -76 45 -95 63 -159 155 l-54 76 0 104 c0 66 6 124 16 159 40 136 157 249
299 286 65 17 177 10 242 -15z"/>
</g>
</svg>
